<?xml version="1.0" encoding="UTF-8"?>
<!DOCTYPE svg PUBLIC "-//W3C//DTD SVG 1.1//EN" "http://www.w3.org/Graphics/SVG/1.1/DTD/svg11.dtd">
<!-- Creator: CorelDRAW X7 -->
<svg xmlns="http://www.w3.org/2000/svg" xml:space="preserve" width="142.229mm" height="78.0495mm" version="1.1" style="shape-rendering:geometricPrecision; text-rendering:geometricPrecision; image-rendering:optimizeQuality; fill-rule:evenodd; clip-rule:evenodd"
viewBox="0 0 5437 2983"
 xmlns:xlink="http://www.w3.org/1999/xlink">
 <defs>
  <style type="text/css">
   <![CDATA[
    .fil1 {fill:#29367D}
    .fil0 {fill:#34B728}
    .fil2 {fill:#29367D;fill-rule:nonzero}
   ]]>
  </style>
 </defs>
 <g id="Layer_x0020_1">
  <metadata id="CorelCorpID_0Corel-Layer"/>
  <g id="_334242375024">
   <path class="fil0" d="M5301 1506c-1,10 -4,19 -9,30l-237 340 248 394c6,11 9,21 9,29 -4,16 -15,25 -32,27l-168 0c-39,-1 -69,-19 -89,-56l-187 -309 0 309c0,25 -11,42 -33,52 -7,3 -15,4 -23,4l-157 0c-25,0 -42,-11 -52,-33 -3,-8 -4,-15 -4,-23l0 -699c7,5 15,9 24,10 26,4 45,-10 60,-29 13,-16 25,-32 35,-50 1,-1 2,-2 2,-3 0,19 2,39 6,58 2,10 5,20 10,29 7,15 20,33 34,43 25,18 56,2 67,-24 5,-12 4,-22 1,-34 -3,-13 -4,-26 -3,-39 0,-8 1,-17 1,-25 5,10 10,20 16,29 4,7 10,13 16,19l0 246 1 0 186 -265c1,-3 3,-5 5,-8 15,-11 29,-24 43,-38 1,47 13,93 53,110 23,10 50,9 71,-4 11,-7 20,-17 25,-29 5,-11 6,-23 3,-34 -5,-17 -18,-26 -32,-29 -1,-8 0,-16 0,-24l78 0c20,1 31,10 32,26z"/>
   <path class="fil0" d="M4254 1480l158 0c24,0 42,11 51,33 3,8 4,15 4,23l0 734c0,25 -11,42 -32,52 -8,3 -15,4 -23,4l-158 0c-24,0 -42,-11 -51,-33 -3,-8 -4,-15 -4,-23l0 -734c0,-25 10,-42 32,-52 8,-3 16,-4 23,-4zm79 -309c65,0 118,53 118,118 0,65 -53,118 -118,118 -65,0 -118,-53 -118,-118 0,-65 53,-118 118,-118z"/>
   <path class="fil0" d="M3767 2165l312 0c25,0 42,11 52,33 3,8 4,16 4,23l0 49c0,25 -11,42 -33,52 -7,3 -15,4 -23,4l-526 0c-24,0 -41,-11 -51,-33 -3,-8 -4,-15 -4,-23l0 -734c0,-25 11,-42 32,-52 8,-3 16,-4 23,-4l158 0c25,0 42,11 51,33 3,8 5,15 5,23l0 629z"/>
   <path class="fil1" d="M3423 1506c0,10 -3,19 -8,30l-238 340 249 394c5,11 8,21 8,29 -3,16 -14,25 -31,27l-168 0c-39,-1 -69,-19 -89,-56l-187 -309 0 309c0,25 -11,42 -33,52 -7,3 -15,4 -23,4l-157 0c-25,0 -42,-11 -52,-33 -3,-8 -4,-15 -4,-23l0 -734c0,-25 11,-42 33,-52 8,-3 15,-4 23,-4l157 0c25,0 42,11 51,33 3,8 5,15 5,23l0 265 1 0 186 -265c22,-37 51,-55 89,-56l157 0c20,1 31,10 31,26z"/>
   <path class="fil0" d="M2418 1641l0 629c0,25 -12,42 -35,52 -8,3 -15,4 -22,4l-157 0c-24,0 -42,-11 -51,-33 -3,-8 -4,-15 -4,-23l0 -629 -151 0c-26,0 -43,-12 -53,-34 -3,-8 -4,-15 -4,-22l0 -49c0,-25 12,-42 35,-52 7,-3 15,-4 22,-4l570 0c25,0 42,11 52,33 3,8 4,15 4,23l0 49c0,25 -11,42 -33,51 -8,3 -15,5 -23,5l-150 0z"/>
   <path class="fil0" d="M1531 2005l0 265c0,25 -11,42 -33,52 -7,3 -15,4 -23,4l-157 0c-25,0 -42,-11 -52,-33 -2,-8 -4,-15 -4,-23l0 -734c0,-25 11,-42 33,-52 8,-3 16,-4 23,-4l526 0c25,0 42,11 51,33 3,8 5,15 5,23l0 49c0,25 -11,42 -33,51 -8,3 -16,5 -23,5l-313 0 0 203 267 0c25,0 42,11 51,33 3,8 5,15 5,23l0 49c0,25 -11,42 -33,51 -7,3 -15,5 -23,5l-267 0z"/>
   <path class="fil0" d="M949 1480l158 0c25,0 42,11 51,33 3,8 5,15 5,23l0 734c0,25 -11,42 -33,52 -8,3 -15,4 -23,4l-158 0c-24,0 -41,-11 -51,-33 -3,-8 -4,-15 -4,-23l0 -734c0,-25 11,-42 32,-52 8,-3 16,-4 23,-4zm79 -309c65,0 118,53 118,118 0,65 -53,118 -118,118 -65,0 -118,-53 -118,-118 0,-65 53,-118 118,-118z"/>
   <path class="fil1" d="M125 2058l0 -310c0,-99 44,-174 131,-226 62,-35 134,-53 216,-53 106,0 192,26 259,78 58,46 88,106 88,178l0 26c0,25 -11,42 -35,51 -7,3 -14,5 -21,5l-157 0c-25,0 -42,-11 -51,-33 -3,-8 -5,-16 -5,-23l0 -48c0,-34 -16,-56 -48,-68 -10,-4 -20,-5 -30,-5 -34,0 -58,13 -71,39 -5,11 -8,22 -8,34l0 400c0,34 16,56 48,68 10,3 20,5 31,5 34,0 58,-13 71,-39 5,-11 7,-22 7,-34l0 -48c0,-25 11,-42 33,-52 8,-2 15,-4 23,-4l157 0c25,0 42,12 52,34 3,7 4,15 4,22l0 26c0,91 -44,159 -133,207 -25,13 -51,24 -79,31l0 51c0,24 -11,42 -33,51 -7,3 -15,4 -23,4l-158 0c-24,0 -42,-11 -51,-32 -3,-8 -4,-16 -4,-23l0 -51c-46,-14 -86,-35 -121,-64 -60,-51 -91,-117 -92,-197z"/>
   <g>
    <path class="fil1" d="M3828 2802c3,5 -2,12 -6,15 -3,2 -6,4 -10,5 -4,2 -9,3 -14,4 -6,0 -10,-1 -15,-4 -13,-6 -16,-22 -16,-36 0,-12 2,-28 2,-35 2,-19 5,-37 10,-56 4,-19 10,-38 17,-57 5,-16 11,-42 31,-45 12,-3 28,5 27,19 -1,17 -7,29 -12,44 -4,12 -9,25 -13,39 -5,13 -9,27 -13,40 -4,14 -7,26 -9,36 -2,10 -2,18 -1,23 3,13 15,-1 22,8z"/>
    <path class="fil1" d="M2662 2709c7,-2 12,-5 18,-9l24 -17c9,-7 16,-14 23,-21 7,-8 13,-16 18,-25 2,-4 3,-9 5,-14 2,-5 2,-10 -1,-14 -2,-4 -7,-5 -12,-4l-7 2c-12,5 -23,10 -32,18 -10,7 -18,15 -26,23 -9,10 -16,21 -22,32 -4,10 -9,21 -12,33 -1,4 2,4 5,3 6,-1 14,-4 19,-7zm-29 33c-2,4 -1,13 -1,18 1,9 4,19 9,25 3,4 7,7 11,8 5,2 10,1 16,0 2,-1 4,-2 6,-3 10,-4 16,-8 25,-14 5,-3 10,-7 15,-11 6,-5 12,-11 17,-15 6,-5 11,-10 16,-16 2,-2 4,-3 6,-5 2,-2 4,-3 6,-5 4,-3 8,-5 12,-5 11,0 4,15 1,19 -1,2 -2,3 -4,5 -19,25 -43,45 -71,61 -7,4 -14,7 -21,10 -7,3 -14,6 -21,7 -15,5 -29,3 -42,-6 -6,-4 -11,-9 -15,-15 -4,-5 -7,-11 -10,-18 -5,-15 -7,-30 -3,-47 2,-21 8,-35 15,-49 11,-23 23,-43 41,-61 13,-14 29,-26 46,-35 13,-6 26,-10 40,-11 11,-1 22,0 32,3 14,5 20,16 18,31 -2,16 -8,31 -18,45 -8,12 -17,22 -27,31 -9,8 -18,15 -27,22 -8,5 -15,9 -22,13 -17,9 -31,13 -50,18z"/>
    <path class="fil1" d="M2226 2757c17,-23 33,-47 50,-70 14,-20 31,-40 50,-58 3,-3 6,-6 9,-9 5,-4 13,-11 20,-12 5,-1 10,-1 15,3 10,8 8,22 5,34 -3,14 -9,30 -15,42 -5,11 -9,23 -13,37 -5,14 -9,28 -12,43 -2,15 -4,30 -5,46 0,13 1,26 4,37 1,4 1,7 0,11 -1,3 -7,9 -11,6 -7,-5 -14,-15 -18,-23 -3,-5 -4,-11 -6,-17 -3,-14 -4,-29 -3,-46 0,-17 2,-35 6,-52 3,-13 6,-24 10,-35 2,-8 5,-15 7,-23 -1,2 -2,3 -3,4 0,0 -1,1 -2,2 -14,15 -26,30 -37,46 -10,17 -22,34 -34,53 -7,11 -16,23 -26,36 -5,7 -12,14 -21,13 -5,-1 -9,-4 -12,-8 -9,-16 11,-104 18,-121 4,-12 8,-24 13,-35 6,-16 18,-49 30,-58 5,-3 10,-4 14,-3 5,0 8,3 10,7 4,9 0,17 -3,26l-13 38c-4,10 -7,19 -11,28 -2,6 -4,12 -6,18 -3,9 -10,32 -10,40z"/>
    <path class="fil1" d="M1662 2709c7,-2 12,-5 18,-9l24 -17c9,-7 16,-14 23,-21 7,-8 13,-16 18,-25 2,-4 3,-9 5,-14 2,-5 2,-10 -1,-14 -2,-4 -7,-5 -12,-4l-7 2c-12,5 -23,10 -32,18 -10,7 -18,15 -26,23 -9,10 -16,21 -22,32 -4,10 -9,21 -12,33 -1,4 2,4 5,3 6,-1 14,-4 19,-7zm-29 33c-2,4 -1,13 -1,18 1,9 4,19 9,25 3,4 7,7 11,8 5,2 10,1 16,0 2,-1 4,-2 6,-3 10,-4 16,-8 25,-14 5,-3 10,-7 15,-11 6,-5 12,-11 17,-15 6,-5 11,-10 16,-16 2,-2 4,-3 6,-5 2,-2 4,-3 6,-5 4,-3 8,-5 12,-5 11,0 4,15 1,19 -1,2 -2,3 -4,5 -19,25 -43,45 -71,61 -7,4 -14,7 -21,10 -7,3 -14,6 -21,7 -15,5 -29,3 -42,-6 -6,-4 -11,-9 -15,-15 -4,-5 -7,-11 -10,-18 -5,-15 -6,-30 -3,-47 2,-21 8,-35 15,-49 11,-23 23,-43 41,-61 13,-14 29,-26 46,-35 13,-6 26,-10 40,-11 11,-1 22,0 32,3 14,5 20,16 18,31 -2,16 -8,31 -18,45 -8,12 -17,22 -27,31 -9,8 -18,15 -27,22 -8,5 -15,9 -22,13 -17,9 -31,13 -50,18z"/>
    <path class="fil1" d="M2376 2730c1,-5 2,-11 4,-16 14,-40 37,-76 70,-105 10,-9 21,-16 31,-22 11,-5 23,-10 36,-12 5,-1 9,-2 14,-2 19,-1 37,11 37,31 0,16 -5,31 -16,45 -6,6 -11,12 -17,17 -6,6 -12,11 -19,16 -5,3 -10,4 -15,4 -3,-1 -5,-2 -7,-4 -1,-1 -2,-4 -2,-7 0,-2 1,-5 2,-7 1,-2 2,-4 4,-6 3,-4 6,-8 10,-11 3,-3 7,-6 11,-9 5,-3 8,-6 11,-9 3,-3 6,-7 9,-11 3,-5 4,-9 4,-13 -1,-6 -5,-8 -11,-6 -2,0 -4,1 -7,3 -11,6 -21,14 -30,22 -17,15 -31,35 -43,55 -15,25 -26,53 -32,83 0,3 0,5 0,8 -1,11 2,26 16,28 12,0 23,-3 33,-10 9,-5 17,-11 25,-17 8,-6 16,-13 24,-20l21 -21c4,-5 9,-8 14,-9 6,-2 9,0 9,5 0,5 -1,10 -5,14 -3,5 -6,8 -9,12 -3,4 -6,7 -9,11 -9,9 -18,17 -28,24 -9,8 -20,15 -31,21 -13,8 -26,12 -39,13 -13,0 -26,-2 -39,-8 -7,-3 -12,-7 -16,-11 -4,-5 -7,-11 -10,-17 -6,-17 -5,-41 0,-59z"/>
    <path class="fil1" d="M2006 2739c-2,1 -5,2 -7,3 -4,1 -7,3 -10,4 -5,1 -13,5 -18,6 -2,0 -4,0 -6,-1 -3,-2 -5,-3 -5,-5 -3,-8 4,-14 10,-17 13,-7 24,-11 39,-16 3,-15 6,-29 8,-43 2,-14 5,-28 9,-42 4,-10 8,-21 12,-32 4,-10 9,-21 15,-31 5,-7 9,-13 14,-19 5,-6 11,-11 17,-17 3,-3 7,-5 11,-7 3,-2 8,-4 12,-6 9,-3 16,-2 23,1 7,3 11,7 14,11 3,4 5,8 5,12 1,4 1,9 1,13 -2,7 -7,15 -15,16 -3,0 -6,-1 -8,-4 -4,-3 -6,-12 -6,-17 -8,0 -15,2 -21,7 -6,5 -11,12 -15,20 -4,8 -7,18 -10,29 -2,11 -4,22 -6,33 -2,11 -3,22 -5,32 -1,11 -3,20 -4,27 4,-1 8,-2 11,-2 5,-2 10,-3 16,-3 2,-1 6,-1 11,-1 4,-1 8,-1 13,1l0 1c7,-29 17,-57 28,-85 6,-8 12,-13 20,-14 7,-2 14,0 21,5 4,3 7,8 6,14 -1,6 -1,12 -2,16 -3,7 -6,17 -10,28 -4,12 -9,25 -13,39 -5,13 -9,27 -13,40 -4,14 -7,26 -9,36 -2,10 -2,18 -1,23 1,6 5,7 11,5 2,0 4,0 6,0 2,0 3,1 5,3 1,1 1,3 1,5 -1,2 -2,4 -3,6 0,1 0,2 -1,2 -3,3 -8,6 -13,7 -4,2 -9,3 -15,4 -5,0 -9,-1 -14,-4 -4,-2 -8,-6 -11,-11 -2,-3 -3,-7 -4,-11 -1,-3 -1,-7 0,-11 0,-28 3,-56 8,-82 -1,0 -1,1 -2,1 -1,0 -3,1 -5,2 -11,3 -23,6 -34,9 -4,1 -8,2 -13,3 -5,39 -12,74 -21,107 -9,33 -21,66 -37,98 -4,8 -9,16 -14,24 -4,7 -10,15 -16,21 -3,4 -13,13 -17,11 -4,-2 -2,-9 0,-12 5,-10 9,-19 12,-29 3,-10 6,-21 9,-31 3,-14 7,-28 10,-43 4,-15 7,-29 10,-43 3,-15 6,-30 9,-44 3,-14 6,-28 7,-42zm166 -217c8,-10 25,-17 36,-10 13,8 6,30 -4,41 -3,4 -8,6 -13,7 -5,2 -16,-1 -20,-4 -10,-8 -6,-25 1,-34z"/>
    <path class="fil1" d="M1831 2791c-2,1 -4,2 -6,3 -1,1 -3,2 -6,2 -7,3 -14,4 -20,2 -6,-2 -11,-6 -14,-12 -1,-3 -2,-5 -2,-7 -1,-3 -1,-5 -2,-7 0,-8 0,-15 1,-22 3,-17 6,-31 12,-47 5,-12 11,-25 16,-37 3,-7 6,-15 9,-22 4,-7 7,-15 11,-22 3,-7 7,-13 10,-19 3,-4 5,-9 9,-13 4,-4 8,-7 12,-7 4,-1 7,-1 11,1 3,2 5,4 7,8 2,3 3,7 3,12 0,3 -1,7 -2,10 -1,4 -3,7 -5,11 -3,7 -7,16 -12,27 -5,11 -10,22 -15,33 -4,11 -9,22 -13,33 -2,5 -14,40 -10,45 1,0 3,-1 6,-3 24,-21 47,-45 67,-71 19,-26 36,-51 50,-75 1,-2 3,-4 6,-6 12,-7 22,-5 28,6 2,3 3,6 4,10 1,3 1,7 0,11 -1,3 -1,7 -2,11 -4,16 -11,36 -15,52 -4,14 -7,27 -11,42 -7,31 -14,61 -22,91 -8,30 -17,57 -27,81 -9,24 -20,42 -33,54 -4,3 -8,7 -14,10 -6,3 -12,5 -18,6 -6,1 -12,1 -19,0 -6,-1 -11,-3 -15,-8 -3,-3 -5,-6 -6,-10 -2,-4 -3,-8 -3,-12 -1,-8 -1,-15 -1,-22 1,-14 10,-38 18,-50 5,-8 11,-15 16,-23 6,-8 11,-15 16,-23 3,-3 6,-6 10,-10 3,-2 6,-4 9,-5 4,-2 12,-3 12,3 0,3 0,5 -1,6 -1,2 -2,5 -3,7 -4,6 -7,12 -11,17 -2,3 -4,5 -6,8 -4,7 -9,13 -14,20 -3,5 -7,11 -10,17 -3,6 -5,12 -7,18 -2,5 -3,10 -4,15 0,6 -2,23 6,25 6,1 14,-9 18,-14 5,-6 9,-12 13,-19 4,-6 7,-13 10,-20 6,-15 12,-31 17,-48 4,-17 8,-34 12,-51 4,-17 8,-34 11,-50 4,-17 8,-33 12,-48 -13,12 -25,24 -37,36 -18,21 -34,34 -56,50z"/>
    <path class="fil1" d="M1413 2683c-2,5 -3,10 -5,16 -1,5 -3,10 -4,16 -4,16 -7,32 -10,47 -3,16 -5,32 -7,47 -2,10 -3,21 -4,32 -1,13 0,33 -4,45 -2,4 -5,6 -8,7 -4,1 -7,0 -10,-3 -10,-14 -11,-77 -10,-95 1,-17 3,-34 4,-51 3,-22 7,-44 12,-66l17 -66c5,-21 11,-41 19,-62 6,-16 14,-35 22,-53 8,-20 17,-38 29,-56 3,-3 6,-6 8,-9 3,-3 6,-6 9,-9 7,-6 14,-7 20,-4 16,6 14,20 9,34 -13,40 -27,67 -45,108 -4,11 -9,22 -13,33 -6,16 -13,32 -18,47 -1,4 -2,9 -2,12 23,-17 45,-33 65,-49 21,-15 41,-32 59,-48 19,-17 36,-36 52,-55 17,-19 32,-41 46,-65 5,-7 18,-22 28,-15 3,2 5,5 6,8 0,3 -1,5 -1,7 -3,6 -5,12 -9,18 -14,23 -33,50 -52,70 -14,17 -30,33 -47,48 -17,15 -34,29 -51,42 -17,13 -33,23 -47,32 20,6 28,14 39,32 12,18 23,52 26,73 2,12 5,25 9,38 3,13 8,25 15,37 9,18 22,25 34,39 3,3 2,6 -3,10 -13,5 -27,-2 -36,-10 -16,-12 -27,-26 -34,-42 -7,-16 -14,-32 -19,-48 -5,-16 -10,-31 -15,-46 -6,-16 -21,-42 -38,-48 -12,-4 -25,-2 -36,2z"/>
    <path class="fil1" d="M3908 2703l3 -6c10,-19 22,-36 36,-50 2,-3 4,-5 6,-7 8,-7 18,-16 29,-14 15,3 14,26 13,38 -1,5 -2,11 -3,16 -2,6 -3,13 -4,19 -1,5 -3,10 -4,16 -1,4 -2,8 1,8 1,0 2,0 2,-1 0,-1 1,-2 2,-2 4,-5 9,-10 13,-15 5,-5 9,-10 14,-14 4,-4 9,-8 13,-12 5,-4 9,-8 14,-12 7,-5 15,-8 23,-11 9,-3 15,-1 18,7 3,7 2,20 0,28l-9 39 -11 53 -6 35 -2 8c-3,9 -10,13 -19,11 -12,-1 -12,-21 -12,-30 0,-5 0,-9 1,-14 1,-8 2,-16 4,-24 1,-11 3,-21 6,-31 1,-7 3,-14 5,-21 1,-5 6,-16 4,-21l-3 2c-6,4 -11,10 -16,16 -4,4 -9,9 -13,13l-13 15c-9,10 -16,22 -30,24 -14,3 -22,-8 -25,-20 -2,-12 -2,-25 0,-38 1,-4 2,-9 3,-14l0 -6c1,-5 -2,-3 -4,-1 0,1 -1,2 -1,3 -9,16 -17,31 -24,46 -5,9 -9,18 -12,27 -4,10 -7,19 -11,28 -1,5 -3,9 -5,14 -3,8 -7,17 -14,23 -3,3 -7,5 -11,5 -13,0 -16,-18 -16,-29 0,-15 1,-32 3,-48 2,-15 4,-29 7,-43 3,-15 6,-29 9,-43 2,-6 3,-12 4,-17 2,-6 3,-11 5,-17 4,-11 19,-27 32,-16 13,9 2,43 0,55 -1,5 -2,9 -3,14 -1,3 -1,7 -2,10 -1,5 -2,12 3,4z"/>
    <path class="fil1" d="M3710 2667c3,-15 6,-31 10,-48 4,-17 8,-33 13,-50 5,-17 10,-33 15,-49 5,-15 11,-30 16,-42 6,-12 12,-23 18,-31 6,-8 12,-13 18,-15 5,-1 9,-1 12,1 16,7 7,27 2,39 -4,10 -9,24 -15,41 -6,16 -13,37 -21,61 -7,24 -15,53 -23,85 -6,28 -11,54 -17,78 -5,25 -10,49 -13,74l-5 45c-1,7 -1,13 -3,20 -1,3 -3,4 -8,4 -8,-2 -8,-10 -10,-17 -2,-7 -3,-14 -4,-22 -1,-13 -2,-25 -2,-37 1,-15 2,-30 3,-45 2,-15 4,-30 6,-45 3,-15 5,-30 8,-47z"/>
    <path class="fil1" d="M3662 2802c4,5 -1,12 -6,15 -3,2 -6,4 -9,5 -5,2 -10,3 -15,4 -5,0 -10,-1 -15,-4 -13,-6 -16,-22 -16,-36 1,-12 2,-28 3,-35 1,-19 4,-37 9,-56 4,-19 10,-38 17,-57 5,-16 11,-42 31,-45 12,-3 29,5 27,19 -1,17 -6,29 -12,44 -4,12 -8,25 -13,39 -4,13 -9,27 -13,40 -4,14 -7,26 -9,36 -2,10 -2,18 -1,23 3,13 15,-1 22,8z"/>
    <path class="fil1" d="M3416 2783c-3,0 -6,0 -10,1 -3,2 -7,3 -10,6 -3,2 -6,5 -8,8 -2,3 -2,6 -1,9 5,-2 10,-5 15,-9 6,-4 10,-9 14,-15zm107 -84c4,-1 7,-1 10,-1 5,-1 12,-2 17,1 10,5 6,15 -2,19 -5,3 -11,6 -17,7 -6,2 -11,3 -17,3 -5,0 -8,0 -10,-1 -4,8 -8,15 -11,21 -4,6 -9,13 -15,21 5,3 10,6 15,9 5,3 9,6 14,9 5,2 9,4 14,4 6,1 11,1 18,-1 8,-3 16,-5 23,-7 7,-2 14,-3 22,-2 3,0 4,1 4,2 2,7 -11,18 -16,21 -13,8 -27,13 -40,17 -7,1 -13,2 -19,1 -15,-1 -22,-4 -34,-12 -7,-5 -17,-12 -22,-16 -11,12 -21,22 -32,28 -11,7 -38,12 -50,6 -6,-3 -9,-9 -10,-18 0,-1 0,-3 0,-5 1,-7 6,-18 11,-25 4,-6 10,-11 16,-15 7,-4 14,-7 22,-8 8,-2 16,-2 25,-1 3,-4 7,-8 11,-14 5,-6 8,-11 9,-15 -2,0 -5,-1 -11,-2 -5,0 -9,-2 -14,-4 -4,-2 -8,-4 -11,-7 -6,-6 1,-14 7,-17 7,-4 9,-2 16,-1 6,1 11,3 16,3 5,1 10,1 14,1 5,-7 9,-13 11,-19 3,-5 6,-10 9,-15 2,-6 5,-11 8,-16 3,-5 7,-10 11,-16 -8,-4 -16,-7 -22,-10 -6,-3 -13,-6 -21,-11 -8,-4 -16,-5 -25,-3 -8,1 -16,5 -22,9 -6,5 -11,11 -14,19 -3,7 -2,14 1,22l3 6c4,11 -19,8 -25,-6 -3,-7 -5,-14 -3,-21 1,-7 3,-14 7,-20 4,-6 9,-12 15,-17 6,-4 12,-8 18,-11 8,-5 16,-8 24,-8 8,-1 16,0 23,2 8,2 16,5 23,8 7,4 14,7 20,11 9,3 17,5 25,4 3,-1 5,-2 7,-4 3,-2 5,-4 7,-6 2,-1 5,-3 8,-5 1,0 3,-1 4,-2 6,-3 15,1 17,8 3,8 -1,17 -6,23 -12,14 -22,27 -31,40 -9,12 -17,25 -25,37z"/>
    <path class="fil1" d="M3198 2785c6,-4 16,-19 21,-25l46 -59c5,-5 10,-11 14,-16 11,-12 21,-26 33,-37 7,-6 16,-14 9,-21 -3,-3 -6,-4 -9,-5 -6,-1 -12,2 -17,4 -7,3 -13,7 -19,11 -13,8 -25,20 -35,31 -25,28 -40,60 -45,96 -1,7 -1,15 2,21zm100 -86l-6 6 -55 70c-3,4 -7,8 -10,12 -3,5 -7,9 -10,13 -3,2 -5,5 -8,7 -2,3 -5,5 -7,8 -6,5 -15,8 -23,10 -13,2 -24,-5 -29,-19 -2,-9 -3,-19 -2,-27 5,-40 19,-76 42,-110 19,-26 42,-46 70,-60 9,-5 19,-9 30,-12 7,-2 15,-3 23,-2 14,1 24,6 31,15l2 3c1,0 2,0 3,-1 1,0 2,0 3,0 3,0 6,0 7,1 9,3 12,8 10,15 -1,4 -2,9 -3,13 -1,3 -2,6 -3,8 -4,9 -7,17 -10,26 -3,8 -6,17 -8,25 -6,20 -10,41 -13,61l-6 35c-1,6 -3,13 -6,21l-2 4c-3,3 -6,5 -9,5 -4,1 -8,-1 -12,-4 -7,-6 -9,-22 -9,-32 0,-10 1,-20 2,-31 1,-10 2,-20 4,-30l6 -30 -2 0z"/>
    <path class="fil1" d="M2972 2742l11 -11c7,-8 14,-16 21,-24 7,-9 14,-17 21,-26l80 -100c3,-4 6,-8 9,-14 3,-5 7,-11 10,-17 3,-6 5,-11 8,-17 2,-6 4,-11 6,-15 2,-4 3,-8 5,-12 2,-4 4,-9 5,-13 3,-6 6,-11 9,-15 6,-8 19,-16 28,-13 17,5 11,31 8,43l-25 80c-4,12 -8,24 -11,35 -3,12 -7,24 -10,36 -6,17 -11,34 -16,51 -5,17 -11,34 -16,51 -4,13 -8,25 -12,38 -4,13 -8,25 -12,38 -3,8 -7,17 -10,25 -4,8 -8,17 -12,25 -4,7 -9,15 -15,22 -5,7 -11,14 -18,20 -6,6 -12,11 -19,15 -7,4 -14,7 -21,10 -7,3 -14,5 -21,5 -10,0 -18,-3 -23,-9 -5,-7 -7,-14 -8,-21 0,-8 0,-15 1,-22 1,-6 3,-14 5,-21 3,-7 6,-14 9,-21 3,-7 7,-14 11,-20 7,-12 15,-23 24,-33 9,-10 18,-20 28,-29 4,-3 13,-10 18,-11 3,-2 9,-1 11,1 2,2 2,4 1,6 0,1 -1,3 -2,4 -4,7 -7,10 -12,15 -9,11 -18,21 -28,31 -20,24 -38,56 -40,87 -1,10 -1,23 10,18 3,-1 5,-2 7,-3 2,-1 5,-3 7,-4 8,-7 16,-15 23,-23 6,-10 12,-20 18,-30 5,-9 9,-20 13,-31l27 -83c4,-14 8,-27 12,-40 4,-14 8,-27 12,-41 3,-8 5,-16 7,-24 2,-8 4,-17 6,-25 2,-7 6,-20 6,-28 -3,2 -5,6 -8,8 -10,14 -20,27 -30,40 -11,13 -21,26 -32,40 -7,9 -15,18 -22,27 -7,9 -15,18 -24,27 -11,11 -23,24 -38,30 -8,3 -14,3 -20,2 -24,-7 -19,-46 -17,-64 5,-26 10,-51 15,-73 5,-23 11,-45 18,-66 7,-21 15,-42 24,-62 9,-21 20,-42 33,-64 3,-4 5,-8 8,-10 7,-7 13,-8 19,-3 7,5 11,11 14,17 3,6 2,14 -2,23 -2,3 -3,6 -5,9 -1,3 -3,6 -5,9 -11,18 -21,35 -29,53 -8,17 -14,35 -20,52 -5,18 -10,36 -13,54 -3,11 -5,22 -7,34 -2,13 -7,39 -7,51 0,2 0,4 2,6z"/>
   </g>
   <path class="fil1" d="M854 1344l-133 0c-100,0 -194,-17 -281,-52 -87,-35 -163,-82 -229,-143 -65,-61 -117,-132 -155,-214 -37,-83 -56,-170 -56,-262 0,-92 19,-179 56,-261 38,-82 90,-154 155,-214 66,-61 142,-109 229,-145 87,-35 181,-53 281,-53l442 0 201 0c0,57 -20,105 -59,144 -38,39 -86,59 -142,59l-442 0c-72,0 -140,12 -204,36 -63,25 -118,59 -165,102 -46,43 -83,93 -111,150 -27,58 -40,118 -40,182 0,66 13,127 40,184 28,57 65,107 111,150 47,42 102,76 165,100 64,24 132,37 204,37l198 0c-7,5 -13,10 -19,16l-1 0 0 1c-33,33 -53,78 -53,128 0,19 3,38 8,55z"/>
   <path class="fil1" d="M1411 575l-17 0c-54,0 -100,19 -138,57 -38,38 -57,84 -57,140l195 0 17 0 0 374 0 201c56,0 103,-20 142,-59 39,-39 58,-87 58,-142l0 -374 72 0 0 0c172,0 277,8 318,181 12,51 19,113 22,187l2 6c3,56 23,103 61,142 38,39 84,59 140,59l0 -201 0 -6c0,-127 -27,-234 -62,-321 -34,-88 -90,-156 -168,-206 133,-84 199,-219 199,-406l0 -4 0 -201c-28,0 -54,5 -79,16 -24,10 -45,25 -63,43 -19,18 -33,39 -43,63 -11,25 -16,51 -16,79l0 4c0,36 -3,72 -10,108 -26,130 -183,260 -301,260l0 0 -72 0 0 -372c0,-56 -19,-103 -58,-142 -39,-39 -86,-59 -142,-59l0 201 0 372z"/>
   <path class="fil1" d="M1163 1144c56,0 104,19 142,58 39,39 59,87 59,142l-162 0c5,-17 8,-36 8,-55 0,-50 -20,-95 -53,-128l0 -1 0 0c-6,-6 -13,-11 -19,-16l25 0z"/>
   <path class="fil2" d="M4514 1350c-17,-2 -30,-18 -28,-35 2,-17 18,-29 36,-27 0,0 29,3 76,13 -4,9 -7,17 -10,24 -5,12 -9,24 -13,36 -38,-8 -61,-11 -61,-11zm705 -12c25,-12 46,-27 65,-43 54,-47 83,-109 88,-177 5,-68 -15,-142 -60,-210 -101,-152 -324,-275 -671,-259 -183,8 -611,123 -933,210 -113,30 -213,57 -281,74 -412,101 -527,56 -550,-38 -10,-41 0,-86 9,-133 9,-41 17,-83 10,-116 -18,-82 -149,-124 -685,-5 -17,3 -35,-7 -38,-24 -4,-17 7,-34 24,-37 588,-131 736,-64 762,53 10,45 0,93 -10,141 -8,40 -16,79 -10,106 15,59 111,81 472,-8 76,-19 172,-45 280,-74 325,-87 757,-203 948,-212 373,-17 615,120 726,287 53,81 77,168 71,250 -6,83 -43,160 -109,218 -34,30 -76,54 -125,72 5,-21 9,-42 14,-63l3 -12z"/>
   <path class="fil1" d="M4170 1403c-7,0 -14,3 -20,9l-97 97c-6,6 -9,13 -9,21 0,17 13,30 29,30 8,0 15,-4 21,-9l98 -98c5,-6 9,-13 9,-21 0,-16 -14,-29 -30,-29 0,0 0,0 -1,0l0 0zm-206 -154c0,0 0,0 -1,0 -16,0 -29,13 -29,29 0,17 13,30 29,30 1,0 1,0 1,0l152 0c1,0 1,0 1,0 17,0 30,-13 30,-30 0,-16 -13,-29 -30,-29 0,0 0,0 -1,0l-152 0zm127 -229c-16,0 -29,13 -29,29 0,8 3,16 8,21l84 84c6,6 14,9 21,9 17,0 30,-13 30,-29 0,-8 -3,-15 -9,-21l-84 -84c-6,-6 -13,-9 -21,-9 0,0 0,0 0,0l0 0zm231 -97c-16,0 -29,13 -29,29 0,0 0,0 0,0l0 118c0,16 13,30 29,30 16,0 29,-14 29,-30l0 -118c0,0 0,0 0,0 0,-16 -13,-29 -29,-29 0,0 0,0 0,0l0 0zm251 77c-8,0 -15,3 -20,9l-98 97c-5,6 -9,13 -9,21 0,16 14,29 30,29 8,0 15,-3 21,-9l97 -97c6,-5 9,-13 9,-21 0,-16 -13,-29 -29,-29 -1,0 -1,0 -1,0l0 0z" color="#000000" color-rendering="auto" solid-color="#000000"/>
   <path class="fil2" d="M1104 2692c-8,0 -15,-7 -15,-16 0,-9 7,-16 15,-16l169 0c8,0 15,7 15,16 0,9 -7,16 -15,16l-169 0zm3060 0c-9,0 -16,-7 -16,-16 0,-9 7,-16 16,-16l168 0c9,0 16,7 16,16 0,9 -7,16 -16,16l-168 0z"/>
   <path class="fil0" d="M4635 1460c22,-29 42,-59 63,-89 19,-26 40,-50 63,-73 4,-4 8,-8 12,-11 6,-6 18,-14 26,-16 6,-2 13,-1 19,4 13,10 10,27 6,42 -4,19 -12,39 -19,54 -6,14 -11,30 -17,48 -6,17 -10,35 -14,54 -4,19 -6,39 -6,58 -1,17 0,33 4,48 1,5 2,9 0,13 -2,4 -8,12 -14,8 -8,-6 -18,-19 -23,-29 -3,-7 -5,-14 -7,-21 -4,-18 -5,-38 -4,-60 0,-21 3,-43 8,-65 3,-16 7,-31 12,-45 3,-10 7,-19 10,-29 -2,3 -4,4 -4,5 -1,1 -2,1 -3,2 -18,19 -33,39 -47,59 -13,21 -28,43 -44,67 -9,15 -19,30 -32,46 -7,9 -15,18 -28,17 -6,-1 -11,-5 -14,-11 -12,-20 14,-131 22,-154 5,-15 11,-30 17,-44 7,-20 23,-61 39,-73 6,-4 11,-6 17,-5 6,1 10,4 12,10 6,11 1,22 -3,33l-17 48c-4,12 -9,24 -13,36 -3,8 -6,15 -8,23 -4,11 -13,40 -13,50zm258 -18c-2,5 -2,17 -1,23 1,12 5,24 12,32 4,5 9,8 14,10 5,2 12,2 19,-1 3,-1 6,-2 9,-3 12,-5 20,-11 31,-17 7,-5 13,-10 20,-15 7,-7 15,-13 22,-20 7,-6 13,-12 20,-19 3,-3 5,-5 7,-7 3,-2 5,-4 8,-6 5,-4 10,-7 15,-7 14,0 6,19 1,25 -1,2 -3,4 -4,6 -25,31 -56,58 -92,78 -8,5 -16,9 -25,13 -9,4 -18,7 -27,9 -20,6 -38,3 -55,-8 -7,-5 -13,-12 -18,-19 -5,-7 -9,-15 -13,-24 -7,-18 -8,-38 -5,-59 4,-27 11,-45 20,-63 15,-29 30,-55 52,-77 17,-18 38,-33 59,-45 16,-8 33,-13 50,-14 15,-2 29,0 42,4 18,7 26,20 23,40 -3,19 -10,38 -23,57 -10,15 -21,28 -34,39 -12,10 -23,19 -35,28 -10,7 -19,12 -28,17 -22,11 -40,16 -64,23zm38 -42c8,-3 15,-7 22,-12l31 -22c11,-8 21,-17 29,-26 9,-10 16,-21 23,-32 2,-5 4,-11 7,-18 2,-6 2,-12 -2,-18 -3,-5 -8,-7 -16,-5l-8 3c-16,5 -29,13 -41,22 -12,9 -23,19 -34,30 -11,13 -20,26 -27,40 -6,14 -11,28 -15,43 -2,5 2,5 6,4 8,-2 17,-6 25,-9zm288 -210c12,-2 24,-5 37,-7 7,-2 52,-11 55,0 3,11 -30,22 -38,25 -21,7 -45,13 -66,23 -7,37 -17,75 -25,111 -5,22 -10,43 -14,64 -5,21 -8,41 -10,59 -2,18 -3,33 -2,47 1,15 3,26 19,26 5,0 12,-1 14,5 1,3 0,7 -1,10 -3,5 -7,10 -12,13 -11,7 -26,7 -38,2 -42,-18 -33,-112 -28,-148 2,-20 5,-39 9,-58 3,-19 8,-38 12,-57 5,-20 9,-40 13,-62 -4,1 -8,2 -13,3 -10,3 -25,9 -34,10 -5,1 -9,-1 -13,-4 -12,-12 8,-27 25,-35 15,-8 31,-10 47,-17 6,-20 10,-35 12,-44 1,-3 4,-13 9,-25 5,-15 10,-31 16,-45 3,-9 7,-16 16,-20 6,-3 14,-3 21,-1 16,5 19,21 15,35 -2,10 -6,21 -9,32 -6,20 -12,38 -17,58z"/>
  </g>
 </g>
</svg>
