<svg viewBox="343.559 165.446 213.438 62.24" xmlns="http://www.w3.org/2000/svg">
  <defs></defs>
  <text style="white-space: pre; fill: rgb(51, 51, 51); font-family: Arial, sans-serif; font-size: 17.3px;" x="375.767" y="201.242">Yararlı Repolar</text>
  <path stroke="rgb(255,0,0)" stroke-width="0" d="M 491.856 208.076 C 495.424 207.724 504.626 211.112 509.791 211.169 C 514.057 211.215 517.391 208.879 520.923 209.313 C 524.393 209.74 526.985 212.621 530.818 213.642 C 535.255 214.825 542.443 214.085 546.279 215.498 C 549.215 216.579 551.039 217.849 552.773 220.136 C 554.81 222.824 557.116 227.591 557.102 231.268 C 557.088 234.909 555.553 239.576 552.773 242.091 C 549.733 244.841 544.296 246.235 538.858 246.42 C 532.217 246.646 523.029 242.499 515.357 241.472 C 507.992 240.487 499.969 240.287 493.711 240.236 C 488.516 240.193 483.947 241.177 480.105 240.854 C 476.961 240.59 475.555 239.182 472.066 238.999 C 467.105 238.738 457.527 242.026 452.275 240.854 C 447.97 239.893 444.188 237.462 442.071 234.36 C 439.918 231.206 438.863 225.699 439.597 221.991 C 440.307 218.408 443.403 214.521 446.091 212.406 C 448.542 210.477 450.792 209.985 454.749 209.313 C 460.63 208.315 473.573 208.4 479.487 208.695 C 483.388 208.889 485.959 210.235 488.145 209.932 C 489.767 209.707 489.881 208.271 491.856 208.076 Z M 390.208 137.796 C 395.057 136.865 401.747 138.041 405.669 139.652 C 408.85 140.958 411.183 142.874 412.782 145.527 C 414.521 148.415 415.824 153.001 415.255 156.659 C 414.653 160.532 412.003 165.78 408.762 168.1 C 405.514 170.425 399.611 169.001 395.774 170.574 C 392.136 172.066 388.418 174.971 386.188 177.068 C 384.503 178.652 385.207 179.819 382.787 181.706 C 377.78 185.609 358.289 195.609 351.246 197.785 C 347.233 199.026 345.408 199.158 342.588 198.404 C 339.52 197.583 335.631 195.349 333.621 192.529 C 331.507 189.564 329.863 184.84 330.528 180.778 C 331.291 176.124 334.753 170.181 339.496 166.245 C 345.148 161.554 360.823 158.599 363.924 156.04 C 365.23 154.963 364.225 154.245 365.161 153.257 C 366.676 151.661 372.445 149.27 373.82 148.001 C 374.509 147.364 374.314 146.905 374.747 146.455 C 375.219 145.965 375.521 145.859 376.603 145.218 C 378.952 143.825 385.369 138.726 390.208 137.796 Z M 537.151 152.045 C 540.57 151.569 543.84 152.169 548.283 153.901 C 554.624 156.373 563.973 164.574 571.784 168.125 C 579.019 171.414 588.315 172.378 593.429 174.928 C 597.071 176.743 599.262 178.24 601.16 180.803 C 603.123 183.454 605.118 187.187 604.87 190.698 C 604.591 194.654 601.706 200.864 598.377 203.376 C 595.145 205.815 590.567 206.267 585.389 205.85 C 578.602 205.303 569.376 201.906 560.652 197.81 C 553.105 194.268 541.886 188.625 534.371 183.199 C 533.093 185.181 531.651 186.956 530.472 188.088 C 528.4 190.077 526.257 190.636 523.669 191.18 C 520.772 191.789 518.69 191.633 513.774 191.18 C 504.958 190.369 480.708 187.236 471.719 184.378 C 466.248 182.638 463.319 181.547 460.897 178.502 C 458.383 175.343 456.635 169.449 457.186 165.515 C 457.713 161.751 461.014 157.399 463.68 155.311 C 465.985 153.504 468.482 153.151 471.719 152.837 C 475.787 152.443 481.926 153.094 486.562 154.074 C 490.966 155.005 493.711 157.446 498.931 158.403 C 505.862 159.673 519.626 158.031 525.524 159.64 C 525.592 159.659 525.66 159.677 525.727 159.696 C 526.369 158.45 527.216 157.334 528.183 156.374 C 530.309 154.266 533.898 152.498 537.151 152.045 Z M 344.963 200.16 C 349.494 199.395 355.321 200.245 362.279 202.016 C 371.736 204.422 393.086 212.737 397.221 215.621 C 398.711 216.66 397.81 217.134 398.768 218.095 C 400.347 219.682 405.208 221.413 407.117 223.97 C 408.992 226.484 410.419 229.986 410.209 233.247 C 409.976 236.855 407.966 242.161 404.952 244.688 C 401.798 247.333 395.899 249.037 391.346 248.399 C 386.419 247.709 382.931 242.455 376.504 239.741 C 367.976 236.14 349.966 233.123 343.108 229.846 C 338.993 227.88 337.081 226.665 335.377 223.97 C 333.56 221.097 332.592 216.199 332.903 212.838 C 333.188 209.763 334.624 206.598 336.614 204.489 C 338.627 202.356 341.422 200.758 344.963 200.16 Z" style="stroke: rgb(129, 151, 57); stroke-width: 2px; fill: rgb(27, 161, 166);"></path>
</svg>
