<svg viewBox="343.559 165.446 213.438 62.24" xmlns="http://www.w3.org/2000/svg">
  <defs></defs>
  <text style="white-space: pre; fill: rgb(51, 51, 51); font-family: Arial, sans-serif; font-size: 17.3px;" x="375.767" y="201.242">C# Faydalı Projeler</text>
  <path fill="rgb(255,0,0)" stroke="rgb(255,0,0)" stroke-width="0" d="M 411.557 208.624 C 416.008 208.443 425.047 211.503 430.728 211.716 C 435.574 211.899 438.959 210.361 443.716 210.48 C 449.138 210.614 456.323 213.082 461.651 212.953 C 466.261 212.842 468.891 210.688 474.02 210.48 C 480.879 210.201 493.517 213.626 499.994 212.953 C 504.604 212.475 506.689 209.526 510.508 209.243 C 514.67 208.934 518.825 211.639 524.114 211.716 C 527.459 211.765 531.388 211.026 535.464 210.255 C 536.59 205.878 541.26 196.221 542.494 194.202 C 542.94 193.473 542.942 193.994 543.421 193.274 C 544.242 192.042 545.961 187.571 547.863 183.497 C 543.629 180.431 539.508 177.349 536.285 175.649 C 530.663 172.684 526.608 170.56 522.06 169.464 C 517.988 168.484 514.163 168.841 510.31 168.846 C 506.539 168.85 502.949 169.46 499.178 169.464 C 495.324 169.469 491.211 168.727 487.427 168.846 C 483.8 168.96 480.078 169.095 476.914 170.083 C 473.931 171.014 472.963 173.515 468.874 174.412 C 462.16 175.884 448.297 175.788 437.333 174.412 C 425.49 172.925 406.42 164.475 400.227 165.135 C 397.324 165.445 396.945 167.273 395.588 168.537 C 394.278 169.756 393.758 171.432 392.187 172.556 C 390.326 173.889 387.694 175.01 384.766 175.649 C 381.285 176.408 375.94 175.069 372.397 176.267 C 369.117 177.376 365.386 181.056 364.048 182.142 C 363.459 182.621 363.406 182.667 363.12 183.07 C 362.777 183.554 362.831 184.211 362.192 184.925 C 361.136 186.107 358.722 188.317 356.317 189.254 C 353.592 190.316 349.485 190.854 346.422 190.491 C 343.533 190.15 341.329 187.935 338.382 187.399 C 335.191 186.819 332.117 186.574 327.869 187.399 C 322.049 188.53 312.151 194.135 306.223 195.439 C 301.793 196.414 298.415 196.805 295.091 196.057 C 291.967 195.354 288.686 193.219 286.742 191.419 C 285.146 189.941 284.291 188.537 283.65 186.471 C 282.878 183.983 282.29 180.102 283.031 177.195 C 283.79 174.218 284.646 171.456 288.288 168.846 C 294.44 164.437 312.614 158.876 322.921 157.095 C 331.511 155.611 341.631 159.378 346.113 157.095 C 349.22 155.513 348.721 150.924 350.751 149.056 C 352.612 147.342 354.469 146.629 357.554 145.963 C 361.964 145.012 372.801 146.68 375.798 145.345 C 377.394 144.634 376.569 143.419 377.963 142.253 C 380.416 140.2 386.498 136.01 391.568 134.831 C 396.945 133.581 402.436 134.356 409.503 135.45 C 418.618 136.86 433.165 142.848 442.281 144.108 C 449.347 145.085 455.637 145.18 460.216 144.108 C 463.711 143.29 464.355 140.812 468.256 139.779 C 474.243 138.194 487.443 138.051 494.849 137.924 C 500.71 137.822 505.813 138.617 509.691 138.542 C 512.534 138.487 513.722 137.906 516.494 137.924 C 520.152 137.947 525.218 137.882 530.1 139.16 C 535.811 140.656 541.733 143.4 548.653 147.2 C 557.297 151.946 573.011 160.508 578.03 166.681 C 581.326 170.736 582.045 174.727 581.74 178.432 C 581.468 181.741 579.678 185.629 577.164 188.035 C 577.267 189.425 577.194 190.953 576.817 192.656 C 575.95 196.573 571.577 204.231 568.732 209.43 C 569.361 209.558 569.951 209.701 570.497 209.861 C 574.418 211.009 576.94 212.344 578.846 215.118 C 581.035 218.305 582.652 224.755 581.938 228.724 C 581.276 232.407 578.396 236.301 575.444 238.31 C 572.511 240.306 568.686 240.403 564.312 240.783 C 558.927 241.251 552.357 239.957 545.141 240.165 C 536.607 240.411 520.978 243.02 516.074 242.639 C 513.878 242.468 513.649 241.339 512.363 241.402 C 510.977 241.469 510.349 242.856 508.034 243.257 C 503.773 243.995 492.814 243.514 486.388 243.257 C 480.855 243.036 476.61 241.936 471.546 242.02 C 466.31 242.108 461.165 243.917 455.466 243.876 C 449.271 243.831 440.379 241.347 435.676 241.402 C 432.597 241.437 431.898 242.614 428.873 242.639 C 426.952 242.654 424.322 242.254 421.498 241.77 C 420.346 244.087 418.814 246.218 417.123 247.462 C 413.667 250.004 407.909 250.141 402.898 249.936 C 397.445 249.713 389.739 247.45 385.582 245.607 C 382.569 244.271 380.219 242.121 379.088 240.969 C 379.033 240.913 378.988 240.858 378.95 240.803 C 375.366 241.415 371.656 242.142 368.884 241.402 C 367.205 240.954 365.595 240.184 364.158 239.199 C 362.113 239.177 360.115 239.073 358.37 238.804 C 351.157 237.692 340.89 234.733 336.106 232.62 C 333.12 231.3 331.476 229.778 330.231 228.6 C 329.391 227.805 329.61 227.312 328.685 226.435 C 327.102 224.933 322.147 223.347 320.336 220.56 C 318.404 217.586 317.165 212.387 317.862 208.81 C 318.549 205.284 322.059 201.219 324.356 199.224 C 326.132 197.681 327.471 197.041 329.922 196.75 C 333.315 196.347 338.135 197.183 343.528 198.605 C 350.678 200.491 362.242 207.374 369.502 208.5 C 375.064 209.363 377.702 205.968 383.727 207.264 C 385.492 207.644 387.713 208.322 390.189 209.212 C 391.685 209.205 393.063 209.217 394.24 209.243 C 398.816 209.345 402.295 210.724 405.372 210.48 C 407.841 210.284 408.691 208.741 411.557 208.624 Z" style="fill: rgb(166, 209, 48); stroke: rgb(129, 151, 57); stroke-width: 2px;"></path>
</svg>
